<svg width="324" height="342" viewBox="0 0 324 342" fill="none" xmlns="http://www.w3.org/2000/svg">
<path d="M51.2474 29.4615C47.8554 29.4615 44.9903 32.3564 44.9903 35.786L44.9904 155.944H24.9425L24.9424 35.7865C24.9424 21.1206 36.7401 9.19238 51.2474 9.19238H272.681C287.185 9.19238 298.987 21.1206 298.987 35.7865V135.887L278.936 135.886V35.786C278.936 32.3564 276.073 29.4615 272.68 29.4615H51.2474Z" fill="url(#paint0_linear)"/>
<path d="M274.016 207.437H49.3186C43.777 207.437 39.2916 212.895 39.2916 219.624C39.2916 226.354 43.7765 231.806 49.3186 231.806H274.016C279.55 231.806 284.033 226.354 284.033 219.624C284.033 212.895 279.55 207.437 274.016 207.437Z" fill="url(#paint1_linear)"/>
<path d="M272.68 169.321C276.072 169.321 278.936 166.42 278.936 162.991V135.784H298.987V162.991C298.987 177.657 287.185 189.585 272.68 189.585H51.2468C36.7395 189.585 24.9417 177.657 24.9417 162.991V155.446H44.9896V162.991C44.9896 166.42 47.8548 169.321 51.2468 169.321H272.68Z" fill="url(#paint2_linear)"/>
<path d="M57.3178 170.121C57.3178 148.856 85.6833 148.856 99.8661 134.679C106.957 127.591 85.6833 127.591 85.6833 92.149C85.6833 68.5234 95.1361 56.707 114.049 56.707C132.962 56.707 142.414 68.5234 142.414 92.149C142.414 127.591 121.14 127.591 128.232 134.679C142.414 148.856 170.78 148.856 170.78 170.121" stroke="url(#paint3_linear)" stroke-width="12" stroke-linecap="round"/>
<path d="M161.275 153.516C166.636 149.823 173.595 147.164 180.255 143.958C185.462 141.451 190.485 138.61 194.418 134.679C201.509 127.591 180.235 127.591 180.235 92.149C180.235 68.5234 189.688 56.707 208.601 56.707C227.513 56.707 236.966 68.5234 236.966 92.149C236.966 127.591 215.692 127.591 222.783 134.679C236.966 148.856 265.332 148.856 265.332 170.121" stroke="url(#paint4_linear)" stroke-width="12" stroke-linecap="round"/>
<path d="M18.7836 287.3C18.7836 291.1 19.2503 294.567 20.1836 297.7C21.1169 300.767 22.4503 303.4 24.1836 305.6C25.9836 307.733 28.1503 309.4 30.6836 310.6C33.2169 311.8 36.0836 312.4 39.2836 312.4C42.4169 312.4 45.2503 311.8 47.7836 310.6C50.3169 309.4 52.4503 307.733 54.1836 305.6C55.9836 303.4 57.3503 300.767 58.2836 297.7C59.2169 294.567 59.6836 291.1 59.6836 287.3C59.6836 283.5 59.2169 280.067 58.2836 277C57.3503 273.867 55.9836 271.233 54.1836 269.1C52.4503 266.9 50.3169 265.2 47.7836 264C45.2503 262.8 42.4169 262.2 39.2836 262.2C36.0836 262.2 33.2169 262.8 30.6836 264C28.1503 265.2 25.9836 266.9 24.1836 269.1C22.4503 271.3 21.1169 273.933 20.1836 277C19.2503 280.067 18.7836 283.5 18.7836 287.3ZM72.8836 287.3C72.8836 293.233 71.9836 298.467 70.1836 303C68.4503 307.533 66.0503 311.333 62.9836 314.4C59.9836 317.4 56.4503 319.667 52.3836 321.2C48.3169 322.733 43.9836 323.5 39.3836 323.5C34.7836 323.5 30.4169 322.733 26.2836 321.2C22.2169 319.667 18.6503 317.4 15.5836 314.4C12.5836 311.333 10.1836 307.533 8.38359 303C6.58359 298.467 5.68359 293.233 5.68359 287.3C5.68359 281.367 6.58359 276.167 8.38359 271.7C10.1836 267.167 12.6169 263.367 15.6836 260.3C18.8169 257.233 22.4169 254.933 26.4836 253.4C30.5503 251.867 34.8503 251.1 39.3836 251.1C43.9169 251.1 48.2169 251.867 52.2836 253.4C56.3503 254.933 59.8836 257.233 62.8836 260.3C65.9503 263.367 68.3836 267.167 70.1836 271.7C71.9836 276.167 72.8836 281.367 72.8836 287.3ZM105.806 252C115.806 252 123.44 253.833 128.706 257.5C134.04 261.167 136.706 266.767 136.706 274.3C136.706 283.7 132.073 290.067 122.806 293.4C124.073 294.933 125.506 296.8 127.106 299C128.706 301.2 130.34 303.6 132.006 306.2C133.673 308.733 135.273 311.367 136.806 314.1C138.34 316.767 139.706 319.4 140.906 322H126.806C125.54 319.6 124.173 317.2 122.706 314.8C121.24 312.333 119.74 309.967 118.206 307.7C116.74 305.367 115.273 303.2 113.806 301.2C112.34 299.133 110.973 297.3 109.706 295.7C108.773 295.767 107.973 295.8 107.306 295.8C106.64 295.8 106.006 295.8 105.406 295.8H99.3063V322H86.7063V253.7C89.7729 253.033 93.0396 252.6 96.5063 252.4C99.9729 252.133 103.073 252 105.806 252ZM106.706 262.9C104.04 262.9 101.573 263 99.3063 263.2V285.6H104.806C107.873 285.6 110.573 285.433 112.906 285.1C115.24 284.767 117.173 284.167 118.706 283.3C120.306 282.433 121.506 281.267 122.306 279.8C123.106 278.333 123.506 276.467 123.506 274.2C123.506 272.067 123.106 270.267 122.306 268.8C121.506 267.333 120.34 266.167 118.806 265.3C117.34 264.433 115.573 263.833 113.506 263.5C111.44 263.1 109.173 262.9 106.706 262.9ZM150.671 252.7H163.271V322H150.671V252.7ZM190.17 287.3C190.17 291.1 190.637 294.567 191.57 297.7C192.504 300.767 193.837 303.4 195.57 305.6C197.37 307.733 199.537 309.4 202.07 310.6C204.604 311.8 207.47 312.4 210.67 312.4C213.804 312.4 216.637 311.8 219.17 310.6C221.704 309.4 223.837 307.733 225.57 305.6C227.37 303.4 228.737 300.767 229.67 297.7C230.604 294.567 231.07 291.1 231.07 287.3C231.07 283.5 230.604 280.067 229.67 277C228.737 273.867 227.37 271.233 225.57 269.1C223.837 266.9 221.704 265.2 219.17 264C216.637 262.8 213.804 262.2 210.67 262.2C207.47 262.2 204.604 262.8 202.07 264C199.537 265.2 197.37 266.9 195.57 269.1C193.837 271.3 192.504 273.933 191.57 277C190.637 280.067 190.17 283.5 190.17 287.3ZM244.27 287.3C244.27 293.233 243.37 298.467 241.57 303C239.837 307.533 237.437 311.333 234.37 314.4C231.37 317.4 227.837 319.667 223.77 321.2C219.704 322.733 215.37 323.5 210.77 323.5C206.17 323.5 201.804 322.733 197.67 321.2C193.604 319.667 190.037 317.4 186.97 314.4C183.97 311.333 181.57 307.533 179.77 303C177.97 298.467 177.07 293.233 177.07 287.3C177.07 281.367 177.97 276.167 179.77 271.7C181.57 267.167 184.004 263.367 187.07 260.3C190.204 257.233 193.804 254.933 197.87 253.4C201.937 251.867 206.237 251.1 210.77 251.1C215.304 251.1 219.604 251.867 223.67 253.4C227.737 254.933 231.27 257.233 234.27 260.3C237.337 263.367 239.77 267.167 241.57 271.7C243.37 276.167 244.27 281.367 244.27 287.3ZM304.793 322C302.526 318.2 299.993 314.133 297.193 309.8C294.393 305.4 291.493 301 288.493 296.6C285.493 292.133 282.426 287.833 279.293 283.7C276.226 279.5 273.293 275.733 270.493 272.4V322H258.093V252.7H268.393C271.06 255.5 273.926 258.833 276.993 262.7C280.06 266.5 283.126 270.467 286.193 274.6C289.326 278.733 292.326 282.9 295.193 287.1C298.126 291.233 300.726 295.1 302.993 298.7V252.7H315.493V322H304.793Z" fill="url(#paint5_linear)"/>
<defs>
<linearGradient id="paint0_linear" x1="299.1" y1="231.554" x2="24.992" y2="9.33786" gradientUnits="userSpaceOnUse">
<stop stop-color="#68BF40"/>
<stop offset="1" stop-color="#0E9CC2"/>
</linearGradient>
<linearGradient id="paint1_linear" x1="252.316" y1="290.521" x2="-48.5746" y2="60.2565" gradientUnits="userSpaceOnUse">
<stop stop-color="#68BF40"/>
<stop offset="1" stop-color="#0E9CC2"/>
</linearGradient>
<linearGradient id="paint2_linear" x1="24.9001" y1="12.1516" x2="299.008" y2="233.692" gradientUnits="userSpaceOnUse">
<stop stop-color="#0E9CC2"/>
<stop offset="1" stop-color="#68BF3F"/>
</linearGradient>
<linearGradient id="paint3_linear" x1="301.801" y1="226.828" x2="-14.3228" y2="-0.126366" gradientUnits="userSpaceOnUse">
<stop stop-color="#68BF3F"/>
<stop offset="1" stop-color="#0E9CC2"/>
</linearGradient>
<linearGradient id="paint4_linear" x1="311.932" y1="217.377" x2="-22.8529" y2="-14.6287" gradientUnits="userSpaceOnUse">
<stop stop-color="#68BF3F"/>
<stop offset="1" stop-color="#0E9CC2"/>
</linearGradient>
<linearGradient id="paint5_linear" x1="203.619" y1="223.929" x2="117.477" y2="152.232" gradientUnits="userSpaceOnUse">
<stop stop-color="#68BF40"/>
<stop offset="1" stop-color="#0E9CC2"/>
</linearGradient>
</defs>
</svg>
